<svg xmlns="http://www.w3.org/2000/svg" xmlns:xlink="http://www.w3.org/1999/xlink" viewBox="0,0,256,256" width="480px" height="480px" fill-rule="nonzero"><g fill="#fafafa" fill-rule="nonzero" stroke="none" stroke-width="1" stroke-linecap="butt" stroke-linejoin="miter" stroke-miterlimit="10" stroke-dasharray="" stroke-dashoffset="0" font-family="none" font-weight="none" font-size="none" text-anchor="none" style="mix-blend-mode: normal"><path d="M40.96,256c-22.62158,0 -40.96,-18.33842 -40.96,-40.96v-174.08c0,-22.62158 18.33842,-40.96 40.96,-40.96h174.08c22.62158,0 40.96,18.33842 40.96,40.96v174.08c0,22.62158 -18.33842,40.96 -40.96,40.96z" id="shape"></path></g><g fill="none" fill-rule="nonzero" stroke="none" stroke-width="1" stroke-linecap="butt" stroke-linejoin="miter" stroke-miterlimit="10" stroke-dasharray="" stroke-dashoffset="0" font-family="none" font-weight="none" font-size="none" text-anchor="none" style="mix-blend-mode: normal"><g transform="scale(5.33333,5.33333)"><path d="M39.6,39c-4.2,3.1 -10.5,5 -15.6,5c-7.3,0 -13.8,-2.9 -18.8,-7.4c-0.4,-0.4 0,-0.8 0.4,-0.6c5.4,3.1 11.5,4.9 18.3,4.9c4.6,0 10.4,-1 15.1,-3c0.7,-0.2 1.3,0.6 0.6,1.1zM41.1,36.9c-0.5,-0.7 -3.5,-0.3 -4.8,-0.2c-0.4,0 -0.5,-0.3 -0.1,-0.6c2.3,-1.7 6.2,-1.2 6.6,-0.6c0.4,0.6 -0.1,4.5 -2.3,6.3c-0.3,0.3 -0.7,0.1 -0.5,-0.2c0.5,-1.2 1.6,-4 1.1,-4.7z" fill="#ffb300"></path><path d="M36.9,29.8c-1,-1.3 -2,-2.4 -2,-4.9v-8.3c0,-3.5 0,-6.6 -2.5,-9c-2,-1.9 -5.3,-2.6 -7.9,-2.6c-5.5,0 -10.3,2.2 -11.5,8.4c-0.1,0.7 0.4,1 0.8,1.1l5.1,0.6c0.5,0 0.8,-0.5 0.9,-1c0.4,-2.1 2.1,-3.1 4.1,-3.1c1.1,0 3.2,0.6 3.2,3v3c-3.2,0 -6.6,0 -9.4,1.2c-3.3,1.4 -5.6,4.3 -5.6,8.6c0,5.5 3.4,8.2 7.8,8.2c3.7,0 5.9,-0.9 8.8,-3.8c0.9,1.4 1.3,2.2 3,3.7c0.4,0.2 0.9,0.2 1.2,-0.1v0c1,-0.9 2.9,-2.6 4,-3.5c0.5,-0.4 0.4,-1 0,-1.5zM27,22.1v0c0,2 -0.1,6.9 -5,6.9c-3,0 -3,-3 -3,-3c0,-4.5 4.2,-5 8,-5z" fill="#000000"></path></g></g></svg>