<svg fill="none" height="1080" viewBox="0 0 1080 1080" width="1080" xmlns="http://www.w3.org/2000/svg"><path d="m0 0h1080v1080h-1080z" fill="#3b45fd"/><g fill="#fff"><path d="m540 202.5c17.51 0 34.708 1.333 51.499 3.904l-4.828 31.275c-15.217-2.33-30.803-3.538-46.671-3.538s-31.453 1.208-46.669 3.538l-4.828-31.275c16.79-2.571 33.988-3.904 51.497-3.904z"/><path d="m620.092 212.06-7.508 30.745c30.837 7.505 59.844 19.685 86.229 35.746l16.428-27.047c-29.113-17.722-61.121-31.162-95.149-39.444z"/><path d="m739.46 267.718-18.699 25.527c25.216 18.503 47.492 40.78 65.996 65.996l25.526-18.699c-20.418-27.825-44.998-52.406-72.823-72.824z"/><path d="m828.497 364.761-27.046 16.428c16.06 26.385 28.24 55.392 35.745 86.23l30.744-7.509c-8.281-34.027-21.721-66.035-39.443-95.149z"/><path d="m873.596 488.503-31.275 4.828c2.33 15.216 3.538 30.802 3.538 46.669 0 15.868-1.208 31.454-3.538 46.671l31.275 4.828c2.571-16.791 3.904-33.989 3.904-51.499 0-17.509-1.333-34.707-3.904-51.497z"/><path d="m801.449 698.813c16.061-26.385 28.241-55.392 35.746-86.229l30.745 7.508c-8.282 34.027-21.722 66.036-39.444 95.15z"/><path d="m786.755 720.761 25.527 18.699c-20.418 27.825-44.999 52.406-72.824 72.823l-18.699-25.526c25.216-18.504 47.493-40.78 65.996-65.996z"/><path d="m698.811 801.45 16.428 27.047c-29.114 17.722-61.122 31.162-95.149 39.443l-7.509-30.744c30.838-7.505 59.845-19.685 86.23-35.746z"/><path d="m586.669 842.321 4.828 31.275c-16.79 2.571-33.988 3.904-51.497 3.904-17.51 0-34.708-1.333-51.499-3.904l4.827-31.271c15.21 2.327 30.795 3.534 46.672 3.534 15.867 0 31.453-1.208 46.669-3.538z"/><path d="m467.414 837.202-7.507 30.737c-25.561-6.221-49.982-15.352-72.893-27.024l-32.032 7.474-7.19-30.812 43.286-10.101 10.298 5.246c20.75 10.571 42.872 18.844 66.038 24.48z"/><path d="m321.088 823.808 7.189 30.813-54.905 12.811c-36.537 8.525-69.329-24.267-60.804-60.804l12.811-54.906 30.813 7.19-12.811 54.905c-3.197 13.702 9.1 25.999 22.802 22.802z"/><path d="m262.423 732.208-30.812-7.19 7.474-32.032c-11.672-22.912-20.804-47.334-27.025-72.896l30.737-7.507c5.636 23.168 13.91 45.29 24.481 66.041l5.246 10.298z"/><path d="m237.674 586.669-31.27 4.828c-2.571-16.79-3.904-33.988-3.904-51.497 0-17.51 1.333-34.708 3.904-51.499l31.275 4.828c-2.33 15.217-3.538 30.803-3.538 46.671 0 15.876 1.207 31.46 3.533 46.669z"/><path d="m242.805 467.416-30.745-7.508c8.282-34.027 21.722-66.035 39.444-95.149l27.047 16.428c-16.061 26.385-28.241 55.392-35.746 86.229z"/><path d="m293.245 359.24-25.527-18.7c20.418-27.825 44.998-52.405 72.824-72.823l18.699 25.526c-25.217 18.504-47.493 40.78-65.996 65.997z"/><path d="m381.189 278.55-16.429-27.047c29.114-17.722 61.123-31.162 95.15-39.443l7.508 30.744c-30.837 7.505-59.844 19.685-86.229 35.746z"/><path d="m814.219 540c0 151.447-122.772 274.219-274.219 274.219-48.037 0-93.189-12.352-132.454-34.053-3.781-2.09-8.192-2.779-12.398-1.797l-121.979 28.461 28.462-121.979c.981-4.206.292-8.618-1.797-12.398-21.701-39.264-34.053-84.416-34.053-132.453 0-151.447 122.772-274.219 274.219-274.219s274.219 122.772 274.219 274.219z"/></g></svg>