<?xml version="1.0" encoding="iso-8859-1"?>
<svg version="1.1" id="Layer_1" xmlns="http://www.w3.org/2000/svg" xmlns:xlink="http://www.w3.org/1999/xlink" x="0px" y="0px"
	 viewBox="0 0 48 48" style="enable-background:new 0 0 48 48;" xml:space="preserve">
<path id="rect65" style="fill:#0077D4;" d="M7,6h15c0.552,0,1,0.448,1,1v15c0,0.552-0.448,1-1,1H7c-0.552,0-1-0.448-1-1V7
	C6,6.448,6.448,6,7,6z"/>
<path id="rect165" style="fill:#0077D4;" d="M25.042,21.958V7c0-0.552,0.448-1,1-1H41c0.552,0,1,0.448,1,1v14.958
	c0,0.552-0.448,1-1,1H26.042C25.489,22.958,25.042,22.511,25.042,21.958z"/>
<path id="rect413" style="fill:#0077D4;" d="M7,25h15c0.552,0,1,0.448,1,1v15c0,0.552-0.448,1-1,1H7c-0.552,0-1-0.448-1-1V26
	C6,25.448,6.448,25,7,25z"/>
<path id="rect415" style="fill:#0077D4;" d="M25,41V26c0-0.552,0.448-1,1-1h15c0.552,0,1,0.448,1,1v15c0,0.552-0.448,1-1,1H26
	C25.448,42,25,41.552,25,41z"/>
</svg>
